<svg xmlns="http://www.w3.org/2000/svg" width="77.051" height="79.245" viewBox="0 0 77.051 79.245">
  <g id="mon_logo-01" data-name="mon logo-01" transform="translate(-62.481 -58.495)">
    <path id="Path_1" data-name="Path 1" d="M187.56,58.73h17.629q12.048,0,17.492,3.429t5.441,10.9a13.743,13.743,0,0,1-2.382,8.33,9.526,9.526,0,0,1-6.335,3.923V85.7q5.382,1.2,7.77,4.483a14.541,14.541,0,0,1,2.382,8.756q0,7.747-5.6,12.087c-3.732,2.892-8.8,4.248-15.206,4.248H187.56ZM199.608,81.1h6.946c3.253,0,5.6-.44,7.069-1.446s2.188-2.673,2.188-5a5,5,0,0,0-2.382-4.668q-2.382-1.415-7.534-1.415h-6.3Zm-.028,9.526v14.85h7.826c3.306,0,5.747-.653,7.321-1.919s2.365-3.2,2.365-5.811c0-4.7-3.362-7.12-10.073-7.12Z" transform="translate(-90.047 -0.235)" fill="#000322"/>
    <rect id="Rectangle_4" data-name="Rectangle 4" width="12.048" height="12.048" transform="translate(127.485 125.692)" fill="#000322"/>
    <rect id="Rectangle_5" data-name="Rectangle 5" width="11.864" height="11.864" transform="translate(63.138 58.688)" fill="#000322"/>
    <path id="Path_2" data-name="Path 2" d="M91.367,138.56q-11.577,0-17.139,4.2t-5.556,12.81a15.052,15.052,0,0,0,2.76,8.913,18.255,18.255,0,0,0,7.812,6.119q-12.827,19.148-16.713,24.74H75.9l14.088-22.6h7.565v22.6H109.6V138.56Zm6.187,24.376h-7.9q-4.959,0-7.321-1.9t-2.365-5.811c0-4.7,3.362-7.148,10.073-7.148h7.509Z" transform="translate(-0.049 -57.698)" fill="#000322"/>
  </g>
</svg>
