<svg xmlns="http://www.w3.org/2000/svg" width="51.957" height="53.436" viewBox="0 0 51.957 53.436">
  <g id="mon_logo-01" data-name="mon logo-01" transform="translate(-62.481 -58.495)">
    <path id="Path_1" data-name="Path 1" d="M187.56,58.73h11.888q8.124,0,11.8,2.313t3.669,7.353a9.267,9.267,0,0,1-1.606,5.617,6.424,6.424,0,0,1-4.272,2.645v.261a8.447,8.447,0,0,1,5.239,3.023,9.8,9.8,0,0,1,1.606,5.9A9.726,9.726,0,0,1,212.1,94c-2.517,1.95-5.934,2.864-10.253,2.864H187.56Zm8.124,15.083h4.684c2.193,0,3.779-.3,4.767-.975a3.789,3.789,0,0,0,1.476-3.371A3.373,3.373,0,0,0,205,66.319a10.317,10.317,0,0,0-5.08-.954h-4.245Zm-.019,6.424V90.25h5.277a7.816,7.816,0,0,0,4.937-1.294,4.728,4.728,0,0,0,1.595-3.918c0-3.17-2.267-4.8-6.792-4.8Z" transform="translate(-101.456 -0.235)" fill="#fff"/>
    <rect id="Rectangle_4" data-name="Rectangle 4" width="8.124" height="8.124" transform="translate(106.314 103.807)" fill="#fff"/>
    <rect id="Rectangle_5" data-name="Rectangle 5" width="8" height="8" transform="translate(62.924 58.625)" fill="#fff"/>
    <path id="Path_2" data-name="Path 2" d="M81.975,138.56q-7.807,0-11.557,2.834t-3.747,8.638a10.15,10.15,0,0,0,1.861,6.01,12.31,12.31,0,0,0,5.267,4.126Q65.15,173.08,62.53,176.851h9.016l9.5-15.241h5.1v15.241h8.124V138.56ZM86.147,155H80.822a7.82,7.82,0,0,1-4.937-1.281,4.732,4.732,0,0,1-1.595-3.918c0-3.168,2.267-4.82,6.792-4.82h5.063Z" transform="translate(-0.049 -64.983)" fill="#fff"/>
  </g>
</svg>
