<svg xmlns="http://www.w3.org/2000/svg" width="46.403" height="46.403" viewBox="0 0 46.403 46.403">
  <g id="cookie" transform="translate(-2 -2)">
    <path id="Path_62" data-name="Path 62" d="M11.667,3.933A1.933,1.933,0,1,0,9.734,5.867,1.934,1.934,0,0,0,11.667,3.933Zm4.834,0a2.9,2.9,0,1,1-2.9,2.9A2.9,2.9,0,0,1,16.5,3.933ZM7.8,10.7a2.9,2.9,0,1,0-2.9,2.9A2.9,2.9,0,0,0,7.8,10.7Zm1.933,6.767A1.933,1.933,0,1,0,7.8,19.4,1.934,1.934,0,0,0,9.734,17.468Z" fill="#b9b9b9"/>
    <path id="Path_63" data-name="Path 63" d="M48.4,25.2A23.213,23.213,0,0,0,25.352,2,9.867,9.867,0,0,1,13.6,13.6C16.284,20.575,9.515,27.3,2,25.2a23.2,23.2,0,0,0,46.4,0Zm-21.43,15.24a2.914,2.914,0,0,1-1.3-1.091,2.9,2.9,0,1,1,1.3,1.091ZM13.378,36.5a3.874,3.874,0,1,0-1.222-.822A3.855,3.855,0,0,0,13.378,36.5ZM35.3,30.7a3.869,3.869,0,1,1,1.5.3A3.875,3.875,0,0,1,35.3,30.7Zm-9.344-9.211a1.937,1.937,0,1,0,.6.4A1.926,1.926,0,0,0,25.954,21.487ZM35.03,11.9a2.9,2.9,0,1,0,.921.621A2.889,2.889,0,0,0,35.03,11.9Z" fill="#b9b9b9" fill-rule="evenodd"/>
  </g>
</svg>
