<svg id="instagram-line" xmlns="http://www.w3.org/2000/svg" width="30" height="30" viewBox="0 0 40 40">
  <path id="Path_3" data-name="Path 3" d="M0,0H40V40H0Z" fill="none"/>
  <path id="Path_4" data-name="Path 4" d="M18.667,13.667a5,5,0,1,0,5,5A5,5,0,0,0,18.667,13.667Zm0-3.333a8.333,8.333,0,1,1-8.333,8.333A8.333,8.333,0,0,1,18.667,10.333ZM29.5,9.917a2.083,2.083,0,1,1-2.083-2.083A2.083,2.083,0,0,1,29.5,9.917ZM18.667,5.333c-4.123,0-4.8.012-6.715.1a9.054,9.054,0,0,0-3,.553,4.811,4.811,0,0,0-1.8,1.172,4.817,4.817,0,0,0-1.173,1.8,9.042,9.042,0,0,0-.552,3c-.087,1.84-.1,2.483-.1,6.715,0,4.123.012,4.8.1,6.715a9.091,9.091,0,0,0,.552,3,5.182,5.182,0,0,0,2.97,2.972,9.073,9.073,0,0,0,3,.555c1.84.087,2.483.1,6.715.1,4.123,0,4.8-.012,6.715-.1a9.108,9.108,0,0,0,3-.552,4.868,4.868,0,0,0,1.8-1.17,4.819,4.819,0,0,0,1.173-1.8,9.112,9.112,0,0,0,.553-3c.087-1.84.1-2.483.1-6.715,0-4.123-.012-4.8-.1-6.715a9.072,9.072,0,0,0-.553-3,4.852,4.852,0,0,0-1.172-1.8,4.807,4.807,0,0,0-1.8-1.173,9.05,9.05,0,0,0-3-.552C23.542,5.343,22.9,5.333,18.667,5.333Zm0-3.333c4.528,0,5.093.017,6.87.1a12.278,12.278,0,0,1,4.047.775A8.126,8.126,0,0,1,32.537,4.8,8.18,8.18,0,0,1,34.458,7.75a12.312,12.312,0,0,1,.775,4.047c.078,1.777.1,2.342.1,6.87s-.017,5.093-.1,6.87a12.321,12.321,0,0,1-.775,4.047,8.509,8.509,0,0,1-4.875,4.875,12.312,12.312,0,0,1-4.047.775c-1.777.078-2.342.1-6.87.1s-5.093-.017-6.87-.1a12.321,12.321,0,0,1-4.047-.775,8.509,8.509,0,0,1-4.875-4.875A12.269,12.269,0,0,1,2.1,25.537c-.078-1.777-.1-2.342-.1-6.87s.017-5.093.1-6.87A12.269,12.269,0,0,1,2.875,7.75,8.133,8.133,0,0,1,4.8,4.8,8.162,8.162,0,0,1,7.75,2.875,12.269,12.269,0,0,1,11.8,2.1C13.573,2.022,14.138,2,18.667,2Z" transform="translate(1.333 1.333)" fill="#000"/>
</svg>
