<svg id="linkedin-box-line" xmlns="http://www.w3.org/2000/svg" width="30" height="30" viewBox="0 0 40 40">
  <path id="Path_12" data-name="Path 12" d="M0,0H40V40H0Z" fill="none"/>
  <path id="Path_13" data-name="Path 13" d="M4.667,3H31.333A1.667,1.667,0,0,1,33,4.667V31.333A1.667,1.667,0,0,1,31.333,33H4.667A1.667,1.667,0,0,1,3,31.333V4.667A1.667,1.667,0,0,1,4.667,3ZM6.333,6.333V29.667H29.667V6.333ZM10.5,13A2.5,2.5,0,1,1,13,10.5,2.5,2.5,0,0,1,10.5,13ZM8.833,14.667h3.333v12.5H8.833ZM18,15.383a4.87,4.87,0,0,1,3.333-1.55c3.452,0,5.833,2.8,5.833,6.25v7.083H23.833V20.083a2.917,2.917,0,1,0-5.833,0v7.083H14.667v-12.5H18Z" transform="translate(2 2)" fill="#000"/>
</svg>
