<svg id="phone-line" xmlns="http://www.w3.org/2000/svg" width="20" height="20" viewBox="0 0 30 30">
  <path id="Path_17" data-name="Path 17" d="M0,0H30V30H0Z" fill="none"/>
  <path id="Path_18" data-name="Path 18" d="M10.958,12.6a13.2,13.2,0,0,0,4.94,4.94L17,15.995a1.25,1.25,0,0,1,1.618-.37,14.278,14.278,0,0,0,5.729,1.7A1.25,1.25,0,0,1,25.5,18.576v5.578A1.25,1.25,0,0,1,24.377,25.4,19.387,19.387,0,0,1,3.1,4.122,1.25,1.25,0,0,1,4.346,3H9.924A1.25,1.25,0,0,1,11.17,4.151a14.277,14.277,0,0,0,1.7,5.729,1.25,1.25,0,0,1-.37,1.617l-1.547,1.1Zm-3.153-.821,2.375-1.7A16.762,16.762,0,0,1,8.809,5.5h-3.3c-.008.207-.011.416-.011.625A16.873,16.873,0,0,0,22.375,23c.209,0,.417,0,.625-.013v-3.3a16.763,16.763,0,0,1-4.585-1.371l-1.7,2.375a15.553,15.553,0,0,1-1.985-.937l-.073-.041a15.7,15.7,0,0,1-5.877-5.877l-.041-.073a15.552,15.552,0,0,1-.937-1.985Z" transform="translate(0.75 0.75)" fill="#fff"/>
</svg>
