<svg id="twitter-line" xmlns="http://www.w3.org/2000/svg" width="30" height="30" viewBox="0 0 40 40">
  <path id="Path_8" data-name="Path 8" d="M0,0H40V40H0Z" fill="none"/>
  <path id="Path_9" data-name="Path 9" d="M24.57,6.884a4.834,4.834,0,0,0-4.833,4.746l-.047,2.624a1,1,0,0,1-1.133.972l-2.6-.353A19.513,19.513,0,0,1,6.1,10.208c-1,5.517.95,9.338,5.638,12.287l2.912,1.83a1,1,0,0,1,.057,1.655l-2.653,1.938a17.27,17.27,0,0,0,4.32-.218c7.863-1.57,13.092-7.487,13.092-17.247,0-.8-1.687-3.568-4.9-3.568ZM16.4,11.568A8.167,8.167,0,0,1,30.378,5.976,6.427,6.427,0,0,0,34.827,4.9c-.558,2.733-.833,3.92-2.023,5.552,0,12.737-7.828,18.93-15.772,20.515-5.447,1.087-13.367-.7-15.637-3.068,1.157-.09,5.857-.595,8.573-2.583C7.67,23.8-1.478,18.418,4.533,3.944a23.41,23.41,0,0,0,8.583,6.728,9.8,9.8,0,0,0,3.288.9Z" transform="translate(0.93 2.366)" fill="#ffe388"/>
</svg>
